<svg class="icon-svg" version="1.1" id="Capa_1" xmlns="http://www.w3.org/2000/svg"
	xmlns:xlink="http://www.w3.org/1999/xlink" x="0px" y="0px"
	width="841.89px" height="841.891px" viewBox="0 0 841.89 841.891"
	enable-background="new 0 0 841.89 841.891"
	xml:space="preserve">
	<style>
		.icon-svg {
			--s1: #E6C43F;
			--s2: #fbaa2d;
		}
		.logo-s1 {fill: var(--s1);}
		.logo-s2 {fill: var(--s2);}
	</style>
	<path class="logo-s1" d="M761.337,250.347c3.236-1.799,30.771-16.016,41.389-21.054c6.118-3.06,8.635-3.779,13.135-6.66
		c1.619-1.08,5.401-3.418,5.758-3.06c0,0.181,0,0.361-0.18,0.542c-1.98,4.678-8.273,11.695-10.794,14.755
		c-5.401,6.84-10.799,13.497-16.918,19.615c-5.036,5.039-10.438,10.077-15.294,15.296c-5.761,6.298-12.959,10.799-18.715,16.917
		c-0.722,0.72-1.619,1.081-2.52,1.62c-2.7,1.979-5.578,4.139-8.279,6.298c-7.196,5.4-13.854,11.157-21.417,15.835
		c-11.154,7.197-22.133,14.756-32.927,22.674c-5.938,4.319-11.52,9.357-18.177,12.778c-9.538,4.858-18.355,11.696-28.793,14.575
		c-8.097,4.86-16.735,8.459-25.195,12.417c-7.556,3.601-15.293,6.66-22.852,10.077c-4.682,2.159-9.538,4.32-14.217,6.298
		c-2.878,1.262-5.938,2.341-8.819,3.603c-3.777,1.618-7.917,2.697-11.695,4.315c-5.22,2.161-9.896,5.761-15.836,5.939
		c-0.721,0-1.259,0.722-1.98,1.079c-6.296,2.882-12.236,6.3-18.895,7.919c-3.419,0.899-6.479,2.338-9.718,3.779
		c-3.778,1.799-7.736,3.238-11.696,4.32c-5.219,1.617-9.718,5.039-15.296,5.396c-3.601,2.701-8.099,3.6-12.056,5.219
		c-3.959,1.801-7.379,5.219-12.057,5.398c-6.298,4.318-13.679,6.479-20.515,9.717c-2.521,1.08-4.68,2.881-7.199,3.781
		c-11.156,3.957-20.694,11.336-32.031,14.936c-6.119,4.139-12.597,7.559-19.796,9.896c-0.72,0.18-1.258,0.721-1.799,1.08
		c-7.918,5.578-17.276,8.098-25.374,13.316c-4.679,3.059-10.257,4.861-15.117,7.379c-9.177,4.678-18.354,9.719-27.352,14.576
		c-11.519,6.299-22.674,12.775-34.191,18.895c-5.04,2.52-9.717,5.76-14.936,8.098c-7.199,3.238-13.676,7.559-20.516,11.518
		c-1.439,0.898-2.878,2.16-4.498,2.699c-5.579,1.621-9.537,6.299-15.116,7.918c-5.758,5.039-13.137,7.738-19.435,12.236
		c-5.759,3.959-10.798,8.637-16.196,12.777c-3.959,3.059-6.838,7.197-11.158,9.719c-1.259,0.719-2.338,1.979-3.059,3.236
		c-1.799,3.42-4.679,5.76-7.199,8.459c-1.798,1.799-3.238,3.6-4.677,5.756c-4.86,7.74-10.079,15.299-14.758,23.217
		c-3.958,6.658-5.938,14.037-9.716,20.516c0.179,3.959-3.059,6.838-3.239,10.615c-0.181,3.061-0.541,5.939-2.16,8.639
		c-0.899,1.617-1.08,3.24-0.899,5.039c0.36,5.219-0.539,10.258-2.34,15.297c-0.539,1.617-0.539,3.418-0.539,5.219
		c-0.181,2.697,0,5.396,0,8.096c-0.181,1.98-1.62,1.439-2.7,1.08c-8.098-7.377-14.577-16.195-21.235-24.834
		c-13.676-17.637-25.733-36.348-36.889-55.783c-10.257-17.998-19.616-36.531-27.354-55.965
		c-5.758-14.398-9.896-28.975-13.317-43.908c-6.478-28.076-10.256-56.508-10.076-85.48c0-5.219,0-10.438,0-15.654
		c0-6.66,0.54-13.316,1.438-19.977c1.441-9.895,2.7-19.614,4.679-29.332c5.219-25.372,13.856-49.485,26.814-72.159
		c10.077-17.636,21.774-34.373,34.551-50.028c13.856-16.917,28.432-33.113,44.807-47.687c7.919-7.02,15.837-14.218,24.115-21.056
		c11.337-9.358,23.393-17.636,35.811-25.373c12.416-7.737,25.193-14.755,38.329-21.054c12.777-5.938,25.554-11.698,39.051-16.375
		c9.536-3.42,19.254-6.479,28.972-9.359c9.537-2.878,19.255-4.318,28.973-6.478c12.417-2.699,25.013-3.24,37.791-3.24
		c3.779,0,7.197,1.26,10.437,3.06c13.496,7.739,25.014,17.635,35.81,28.793c0.722,0.721,1.26,1.621,1.62,2.52
		c0.182,0.539-0.36,1.438-0.721,1.799c-0.539,0.361-1.438,0.538-1.979,0.719c-12.237,1.801-24.472,3.78-36.529,6.66
		c-21.415,5.038-41.75,12.417-61.004,22.852c-22.854,12.237-35.63,21.056-35.63,21.056s12.416-5.038,15.656-6.118
		c11.877-4.319,50.565-15.477,57.765-16.376c7.198-1.26,51.287-5.759,58.306-6.118c16.914-0.722,49.485,0.18,76.479,6.299
		c47.508,12.414,91.597,38.688,99.333,43.367c22.135,13.677,42.291,29.692,60.286,48.766c1.619,1.802,3.417,3.601,4.859,5.579
		c5.396,4.32,6.837,7.018,14.396,9.359C691.875,282.019,722.285,271.942,761.337,250.347z M59.521,445.056
		c0,14.037,0.9,26.994,3.419,39.592c0.359,1.617,0.54,3.416,0.719,5.217c0.721,8.998,3.6,17.453,5.58,26.094
		c1.44,6.656,4.139,13.316,6.119,19.793c2.158,7.379,5.038,14.396,7.917,21.594c0.18,0.182,0.899,0.543,1.079,0.361
		c0.36-0.18,0.72-0.719,0.72-1.08c0.18-2.52,0.18-5.037,0-7.377c-0.36-7.199-1.08-14.398-1.26-21.596
		c-0.72-23.033,0.899-46.066,3.06-69.102c0.18-1.26,0.36-2.518,0.72-3.598c2.518-8.82,2.518-17.996,4.499-26.994
		c2.339-11.157,4.499-22.314,7.377-33.291c3.958-15.114,8.999-29.872,14.577-44.449c6.838-17.814,14.757-35.089,24.473-51.646
		c11.158-19.255,23.395-37.971,38.51-54.527c0.72-0.719,1.08-1.618,1.621-2.518c0.359-0.542-0.541-1.622-1.08-1.622
		c-0.721,0.181-1.62,0.181-2.16,0.542c-9.718,6.837-19.255,13.855-28.253,21.775c-10.256,8.816-19.434,18.533-28.253,28.432
		c-7.917,8.817-15.115,18.356-21.594,28.433c-8.638,13.497-16.195,27.713-21.953,42.829c-3.96,10.437-7.379,21.054-9.898,31.853
		c-2.34,10.435-3.599,20.872-4.859,31.492C59.88,432.281,59.341,439.119,59.521,445.056z"/>
	<path class="logo-s2" d="M130.601,709.947c1.081,0.182,2.52,0.9,2.7-1.08c0.181-2.699,0-5.398,0-8.096c0-1.801,0-3.602,0.54-5.219
		c1.799-5.039,2.7-10.078,2.338-15.297c-0.178-1.799,0-3.422,0.9-5.039c1.439-2.699,1.98-5.398,2.159-8.639
		c0.181-3.777,3.24-6.656,3.24-10.615c3.778-6.479,5.938-13.857,9.717-20.516c4.68-7.916,9.718-15.477,14.756-23.213
		c1.439-2.16,2.878-3.961,4.679-5.76c2.519-2.699,5.397-5.039,7.198-8.459c0.719-1.258,1.799-2.518,3.059-3.236
		c4.318-2.521,7.198-6.66,11.156-9.719c5.398-4.32,10.437-8.818,16.196-12.777c6.298-4.498,13.497-7.197,19.435-12.236
		c5.579-1.619,9.358-6.297,15.115-7.918c1.62-0.359,2.88-1.801,4.5-2.699c6.838-3.777,13.316-8.279,20.515-11.518
		c5.218-2.338,9.897-5.578,14.936-8.098c11.517-5.939,22.853-12.596,34.191-18.895c8.997-5.039,18.175-9.896,27.352-14.576
		c5.039-2.699,10.438-4.498,15.117-7.379c8.098-5.219,17.635-7.738,25.374-13.316c0.54-0.359,1.259-0.9,1.798-1.08
		c7.199-2.338,13.677-5.758,19.796-9.896c11.336-3.418,20.875-10.979,32.031-14.936c2.52-0.9,4.678-2.701,7.197-3.777
		c6.839-3.242,14.216-5.402,20.517-9.721c4.678-0.18,8.097-3.598,12.057-5.398c3.958-1.799,8.457-2.699,12.055-5.219
		c5.58-0.357,10.078-3.959,15.297-5.396c3.779-1.082,7.918-2.521,11.699-4.32c3.057-1.441,6.296-3.06,9.716-3.779
		c6.837-1.801,12.777-5.037,18.896-7.919c0.719-0.357,1.258-0.9,1.979-1.079c5.938-0.178,10.615-3.778,15.835-5.939
		c3.779-1.619,7.917-2.698,11.698-4.315c2.877-1.262,5.938-2.341,8.816-3.603c4.678-2.157,9.538-4.319,14.216-6.298
		c7.558-3.417,15.296-6.476,22.855-10.077c8.456-3.958,17.095-7.557,25.192-12.417c10.617-2.879,19.254-9.717,28.793-14.575
		c6.655-3.42,12.237-8.459,18.176-12.778c10.795-7.918,21.773-15.477,32.932-22.674c7.557-4.678,14.217-10.615,21.412-15.835
		c2.7-1.979,5.577-4.139,8.279-6.298c0.72-0.539,1.799-0.9,2.52-1.62c5.758-6.118,12.953-10.798,18.717-16.917
		c4.856-5.219,10.076-10.257,15.293-15.296c6.118-6.119,11.696-12.775,16.917-19.615c2.341-3.06,5.396-6.477,7.737-10.077
		c1.257-1.979,3.061-5.219,3.061-5.219s-0.722,6.659-0.901,10.799c-1.439,7.198-1.618,10.078-4.861,16.016
		c-6.117,11.878-13.854,22.854-21.952,33.47c-14.037,17.997-29.511,34.731-46.065,50.568
		c-12.599,12.056-26.453,22.494-41.03,31.671c-18.176,11.517-36.893,22.134-55.786,32.21
		c-12.777,6.661-25.373,13.317-38.331,19.436c-11.695,5.398-23.033,11.519-34.909,16.376c-9.178,3.777-17.997,8.277-26.993,12.418
		c-6.48,2.877-13.137,5.758-19.794,8.457c-9.719,4.139-19.616,8.098-29.334,12.238c-12.956,5.395-25.912,10.975-38.87,16.553
		c-9.355,3.961-18.534,8.098-27.712,12.236c-9.538,4.32-18.896,8.459-28.435,12.779c-8.996,4.139-17.993,8.277-26.991,12.416
		c-9.358,4.318-18.896,8.637-28.073,13.316c-8.278,3.959-16.376,8.279-24.474,12.416c-7.739,3.781-15.477,7.559-23.214,11.518
		c-15.116,7.738-30.231,15.654-45.168,24.115c-8.638,4.857-17.456,9.354-25.554,14.934c-6.298,4.32-12.776,8.459-18.175,14.217
		c-1.26,1.26-2.519,2.34-3.599,3.779c-4.5,6.297-3.96,9.537,0,14.035c3.238,3.6,6.119,7.02,9.896,10.08
		c4.139,3.416,7.918,7.557,11.877,11.154c3.419,3.061,4.14,3.418,7.738,0.9c4.679-3.238,9.897-4.318,15.476-4.139
		c4.679,0.182,9.357,0.182,14.217-0.18c11.336-0.719,22.314,1.26,33.291,3.24c5.758,1.078,11.517,3.059,16.735,6.117
		c5.04,2.879,9.178,6.838,11.517,12.236c1.26,3.24,3.419,3.959,6.479,3.418c8.458-1.799,17.096-3.059,25.194-5.938
		c6.477-2.338,12.956-4.857,18.895-8.277c15.656-8.818,28.07-21.053,38.328-35.631c8.099-11.336,14.577-23.576,19.435-36.711
		c4.858-12.775,8.999-25.73,11.158-39.229c0.541-3.24,1.62-10.617,1.62-10.617h28.972c-0.181,3.42-0.358,5.76-0.72,7.916
		c-1.798,11.518-2.698,23.217-5.757,34.373c-4.319,15.477-9.719,30.592-17.816,44.629c-6.118,10.617-13.497,20.152-21.414,29.332
		c-5.938,7.018-13.318,12.596-20.695,18.174c-7.917,5.939-16.017,11.518-25.013,16.018c-10.617,5.219-21.415,10.256-32.752,13.674
		c-7.917,2.342-15.655,4.502-23.574,6.299c-4.318,0.9-6.478,3.061-7.017,7.379c-1.08,9.178-10.617,16.375-18.715,17.455
		c-12.237,1.801-24.294,0.719-36.17-1.439c-3.239-0.539-6.299-0.898-9.539-1.438c-8.457-1.262-16.376-3.602-23.394-8.639
		c-7.018-4.859-10.977-11.34-10.977-19.975c0-3.779-0.181-7.379,0-11.158c0.359-4.318-1.439-7.197-5.039-9.178
		c-4.138-2.338-7.738-5.219-11.517-8.277c-9.358-7.379-18.355-15.113-26.993-23.393c-4.858-4.502-6.118-3.6-9.717,0.178
		c-3.418,3.6-6.478,7.559-9.538,11.516c-10.077,13.318-17.636,28.076-24.294,43.371c-1.439,3.418-3.598,6.479-4.138,10.258
		c-0.18,0.898-0.901,1.799-1.62,2.518c-0.72,0.721-1.8,0.9-2.88,0.541C130.96,711.748,130.601,711.027,130.601,709.947z
			M301.916,689.613c-0.179-5.219,0.18-9.357-2.878-12.957c-3.06-3.598-7.018-5.758-11.338-6.479
		c-4.318-0.539-8.818-0.898-13.316-1.801c-1.259-0.178-2.52-0.178-3.778,0c-6.299,0.361-10.079,3.42-12.058,9.359
		c-1.259,4.139-1.44,8.277-0.899,12.416c0.72,4.859,3.779,8.098,7.918,10.258c7.377,3.957,15.656,3.957,23.934,4.139
		c1.619,0,3.418-0.719,5.039-1.08c1.62-0.361,2.698-1.26,3.599-2.518C301.197,697.351,302.277,693.211,301.916,689.613z"/>
</svg>