<svg class="logo-svg" version="1.1" id="Capa_1" xmlns="http://www.w3.org/2000/svg"
	xmlns:xlink="http://www.w3.org/1999/xlink" x="0px" y="0px"
	viewBox="0 0 1080 1080" style="enable-background:new 0 0 1080 1080;" xml:space="preserve">
<style type="text/css">
	.logo-svg {
		--s1: #FFC622;
		--s2: #FBAA2D;
		--s3: #384E9A;
	}
	.logo-s1{fill:var(--s1);}
	.logo-s2{fill:var(--s2);}
	.logo-s3{fill:var(--s3);}
</style>
<g>
	<path class="logo-s1" d="M569.6,280.5c0-17.2,0-34.5,0-51.7c0-0.8,0-1.7,0-2.5c0.1-1.2,0.6-1.7,1.8-1.9c0.5-0.1,1.1-0.1,1.7-0.1
		c8.7-0.6,17.3-1,26-0.9c2.8,0.1,5.5-0.1,8.3,0.1c7,0.3,14,0.8,21,1.2c0.7,0,1.4,0.1,2.1,0.1c9.1,0.3,18.1,1.4,27.2,2.4
		c4.9,0.5,9.8,1.5,14.8,1.9c2.5,0.2,4.9,0.7,7.3,1.1c19.5,3.5,38.9,7.9,57.6,14.7c10.2,3.7,20.3,7.9,29.9,13
		c12.7,6.8,24.6,14.7,35.2,24.5c8.4,7.7,15.6,16.3,22.3,25.4c7.3,9.9,13.4,20.5,18.6,31.7c4.6,9.9,8.3,20.1,11.1,30.7
		c1.4,5.3,2.9,10.7,3.8,16.1c0.8,4.9,1.9,9.7,2.1,14.7c0.2,3.4,0.7,6.8,0.9,10.3c0.6,8,0.5,16,0,24c-0.5,8-1.4,15.9-2.8,23.8
		c-1.8,9.5-4.2,18.8-7.5,27.9c-2.8,7.9-6.1,15.6-10,23.1c-5.1,10-11.3,19.2-18.5,27.9c-9.9,12-21.5,22.2-34.7,30.4
		c-5.4,3.3-11,6.3-16.8,9c-0.5,0.2-1,0.5-1.5,0.8c-0.4,0.2-0.3,1.2,0.2,1.4c0.6,0.3,1.3,0.5,1.9,0.7c12.7,3.3,25,7.9,36.5,14.2
		c11.1,6,21.2,13.3,30.2,22.2c7.3,7.2,13.9,14.9,19.6,23.4c5.8,8.7,10.5,18.1,14.5,27.9c3.2,7.9,5.9,16,7.9,24.3
		c2.1,8.4,3.6,17,4.7,25.6c1,7.2,1.5,14.5,2,21.8c0.5,7,0.6,14-0.2,21.1c-0.5,4.1-0.5,8.2-0.9,12.4c-0.8,7.8-1.9,15.6-3.3,23.3
		c-1.6,8.8-3.6,17.5-6.2,26.1c-3.1,10.2-6.7,20.1-11.1,29.8c-4.7,10.2-10,20-16.3,29.2c-8,11.9-17.9,22-29,31
		c-14.8,12-31.4,20.9-49,28.1c-12.9,5.3-26.2,9.4-39.8,12.5c-6.7,1.6-13.5,2.9-20.2,4.2c-4.9,0.9-9.8,1.4-14.7,2
		c-6.4,0.8-12.9,1.5-19.3,2.2c-1.1,0.1-2.2,0.2-3.3,0.2c-5.7,0.1-11.3,0.2-17,0.2c-27.2,0-54.4,0-81.5,0c-1.1,0-2.2,0-3.3,0
		c-1.9-0.1-2.3-0.5-2.4-2.6c0-0.7,0-1.4,0-2.1c0-33.8,0-67.6,0-101.4c0-5.6-0.3-5.6,5.7-5.6c26.6,0,53.2,0,79.9,0c1.7,0,3.3,0,5,0
		c8.6,0.1,17-1.6,25.2-4c8.3-2.4,16.1-5.8,23.2-10.6c12-8.1,20.8-18.8,26.1-32.3c3.2-8.1,5.5-16.5,7-25c1.7-9,2.8-18,2.8-27.1
		c0-2.8,0.6-5.5,0.5-8.2c-0.4-9.2-0.6-18.4-2.1-27.6c-2-12.5-5.5-24.5-11.4-35.7c-10-18.9-25.1-31.9-45.5-38.5
		c-8.6-2.8-17.3-4.2-26.4-4.2c-26.2,0.1-52.4,0-78.6,0c-3.2,0-6.3-0.3-9.5-0.5c-1.5-0.1-1.8-0.6-1.9-2.1c0-1,0-1.9,0-2.9
		c0-33.5,0-67,0-100.6c0-5.9-0.4-5.4,5.3-5.4c5.4,0,10.7,1,16.1,0.6c6.5-0.5,12.9-0.5,19.4-1.1c5.5-0.5,11-1,16.4-1.9
		c7.8-1.2,15.4-2.8,23-5c14.2-4.1,27.4-10.1,38.9-19.6c10.7-8.8,18.4-19.7,22.6-33c1.6-5,2.5-10.1,3.3-15.3
		c1.1-6.9,1.2-13.8,0.6-20.6c-0.7-8.9-2-17.8-4.4-26.4c-2-6.9-4.4-13.6-7.5-20.1c-3.3-6.9-7.4-13.2-12.3-19
		c-4.6-5.5-10.6-9.3-16.9-12.3c-10.2-4.9-21.2-7.8-32.3-9.8c-7.4-1.3-15-2.2-22.5-3c-14.2-1.5-28.3-1.5-42.5-1.5c-1.7,0-3.3,0-5-0.1
		c-1.4-0.1-1.9-0.6-2-2.1c-0.1-1.1,0-2.2,0-3.3C569.7,314.8,569.7,297.7,569.6,280.5C569.6,280.5,569.6,280.5,569.6,280.5z"/>
	<path class="logo-s3" d="M257,593.4c0-61.8,0-185.4,0-185.4s0-118.7,0-178c0-5.2-0.3-5,4.9-5c81.1,0,162.2,0,243.4,0c0.8,0,1.7,0,2.5,0
		c1.9,0.1,2.8,0.9,3.1,2.6c0.1,0.9,0.1,1.9,0.1,2.9c0,33.9,0,67.9,0,101.8c0,0.8,0,1.7,0,2.5c-0.2,2.2-1,3-3.1,3.1
		c-1.2,0.1-2.5,0-3.7,0c-32.7,0-65.4,0-98.1,0c-1.2,0-2.5,0-3.7,0.1c-0.9,0.1-1.5,0.7-1.6,1.6c-0.1,1.1-0.1,2.2-0.1,3.3
		c0,59.2,0,118.4,0,177.5c0,4.7,0,4.7,4.9,4.7c17.7,0,35.3,0,53,0c15.9,0,31.7,0,47.6,0c4.8,0,4.8,0,4.8,4.8c0,34.1,0,68.2,0,102.2
		c0,0.1,0,0.3,0,0.4c0,4-0.1,4.2-4.2,4.2c-33.4,0-66.8,0-100.2,0c-1.1,0-2.2,0-3.3,0c-2.1,0.1-2.5,0.5-2.6,2.8c0,0.7,0,1.4,0,2.1
		c0,68,0,136,0,204c0,4.4,0,4.4,4.3,4.4c33.4,0,66.8,0,100.2,0c1.2,0,2.5,0,3.7,0c1.4,0.1,1.9,0.7,2,2.1c0.1,1,0,1.9,0,2.9
		c0,33.9,0,67.9,0,101.8c0,4.7,0,4.8-4.8,4.8c-81.4,0-162.8,0-244.2,0c-0.7,0-1.4,0-2.1,0c-2.4-0.1-2.7-0.5-2.8-3c0-1.8,0-3.6,0-5.4
		C257,833.5,257,713.5,257,593.4z"/>
	<g>
		<path class="logo-s1" d="M584.3,181.6c1.8-1,17.1-8.9,23-11.7c3.4-1.7,4.8-2.1,7.3-3.7c0.9-0.6,3-1.9,3.2-1.7c0,0.1,0,0.2-0.1,0.3
			c-1.1,2.6-4.6,6.5-6,8.2c-3,3.8-6,7.5-9.4,10.9c-2.8,2.8-5.8,5.6-8.5,8.5c-3.2,3.5-7.2,6-10.4,9.4c-0.4,0.4-0.9,0.6-1.4,0.9
			c-1.5,1.1-3.1,2.3-4.6,3.5c-4,3-7.7,6.2-11.9,8.8c-6.2,4-12.3,8.2-18.3,12.6c-3.3,2.4-6.4,5.2-10.1,7.1c-5.3,2.7-10.2,6.5-16,8.1
			c-4.5,2.7-9.3,4.7-14,6.9c-4.2,2-8.5,3.7-12.7,5.6c-2.6,1.2-5.3,2.4-7.9,3.5c-1.6,0.7-3.3,1.3-4.9,2c-2.1,0.9-4.4,1.5-6.5,2.4
			c-2.9,1.2-5.5,3.2-8.8,3.3c-0.4,0-0.7,0.4-1.1,0.6c-3.5,1.6-6.8,3.5-10.5,4.4c-1.9,0.5-3.6,1.3-5.4,2.1c-2.1,1-4.3,1.8-6.5,2.4
			c-2.9,0.9-5.4,2.8-8.5,3c-2,1.5-4.5,2-6.7,2.9c-2.2,1-4.1,2.9-6.7,3c-3.5,2.4-7.6,3.6-11.4,5.4c-1.4,0.6-2.6,1.6-4,2.1
			c-6.2,2.2-11.5,6.3-17.8,8.3c-3.4,2.3-7,4.2-11,5.5c-0.4,0.1-0.7,0.4-1,0.6c-4.4,3.1-9.6,4.5-14.1,7.4c-2.6,1.7-5.7,2.7-8.4,4.1
			c-5.1,2.6-10.2,5.4-15.2,8.1c-6.4,3.5-12.6,7.1-19,10.5c-2.8,1.4-5.4,3.2-8.3,4.5c-4,1.8-7.6,4.2-11.4,6.4
			c-0.8,0.5-1.6,1.2-2.5,1.5c-3.1,0.9-5.3,3.5-8.4,4.4c-3.2,2.8-7.3,4.3-10.8,6.8c-3.2,2.2-6,4.8-9,7.1c-2.2,1.7-3.8,4-6.2,5.4
			c-0.7,0.4-1.3,1.1-1.7,1.8c-1,1.9-2.6,3.2-4,4.7c-1,1-1.8,2-2.6,3.2c-2.7,4.3-5.6,8.5-8.2,12.9c-2.2,3.7-3.3,7.8-5.4,11.4
			c0.1,2.2-1.7,3.8-1.8,5.9c-0.1,1.7-0.3,3.3-1.2,4.8c-0.5,0.9-0.6,1.8-0.5,2.8c0.2,2.9-0.3,5.7-1.3,8.5c-0.3,0.9-0.3,1.9-0.3,2.9
			c-0.1,1.5,0,3,0,4.5c-0.1,1.1-0.9,0.8-1.5,0.6c-4.5-4.1-8.1-9-11.8-13.8c-7.6-9.8-14.3-20.2-20.5-31c-5.7-10-10.9-20.3-15.2-31.1
			c-3.2-8-5.5-16.1-7.4-24.4c-3.6-15.6-5.7-31.4-5.6-47.5c0-2.9,0-5.8,0-8.7c0-3.7,0.3-7.4,0.8-11.1c0.8-5.5,1.5-10.9,2.6-16.3
			c2.9-14.1,7.7-27.5,14.9-40.1c5.6-9.8,12.1-19.1,19.2-27.8c7.7-9.4,15.8-18.4,24.9-26.5c4.4-3.9,8.8-7.9,13.4-11.7
			c6.3-5.2,13-9.8,19.9-14.1c6.9-4.3,14-8.2,21.3-11.7c7.1-3.3,14.2-6.5,21.7-9.1c5.3-1.9,10.7-3.6,16.1-5.2
			c5.3-1.6,10.7-2.4,16.1-3.6c6.9-1.5,13.9-1.8,21-1.8c2.1,0,4,0.7,5.8,1.7c7.5,4.3,13.9,9.8,19.9,16c0.4,0.4,0.7,0.9,0.9,1.4
			c0.1,0.3-0.2,0.8-0.4,1c-0.3,0.2-0.8,0.3-1.1,0.4c-6.8,1-13.6,2.1-20.3,3.7c-11.9,2.8-23.2,6.9-33.9,12.7
			c-12.7,6.8-19.8,11.7-19.8,11.7s6.9-2.8,8.7-3.4c6.6-2.4,28.1-8.6,32.1-9.1c4-0.7,28.5-3.2,32.4-3.4c9.4-0.4,27.5,0.1,42.5,3.5
			c26.4,6.9,50.9,21.5,55.2,24.1c12.3,7.6,23.5,16.5,33.5,27.1c0.9,1,1.9,2,2.7,3.1c3,2.4,3.8,3.9,8,5.2
			C545.7,199.2,562.6,193.6,584.3,181.6z M194.3,289.8c0,7.8,0.5,15,1.9,22c0.2,0.9,0.3,1.9,0.4,2.9c0.4,5,2,9.7,3.1,14.5
			c0.8,3.7,2.3,7.4,3.4,11c1.2,4.1,2.8,8,4.4,12c0.1,0.1,0.5,0.3,0.6,0.2c0.2-0.1,0.4-0.4,0.4-0.6c0.1-1.4,0.1-2.8,0-4.1
			c-0.2-4-0.6-8-0.7-12c-0.4-12.8,0.5-25.6,1.7-38.4c0.1-0.7,0.2-1.4,0.4-2c1.4-4.9,1.4-10,2.5-15c1.3-6.2,2.5-12.4,4.1-18.5
			c2.2-8.4,5-16.6,8.1-24.7c3.8-9.9,8.2-19.5,13.6-28.7c6.2-10.7,13-21.1,21.4-30.3c0.4-0.4,0.6-0.9,0.9-1.4
			c0.2-0.3-0.3-0.9-0.6-0.9c-0.4,0.1-0.9,0.1-1.2,0.3c-5.4,3.8-10.7,7.7-15.7,12.1c-5.7,4.9-10.8,10.3-15.7,15.8
			c-4.4,4.9-8.4,10.2-12,15.8c-4.8,7.5-9,15.4-12.2,23.8c-2.2,5.8-4.1,11.7-5.5,17.7c-1.3,5.8-2,11.6-2.7,17.5
			C194.5,282.7,194.2,286.5,194.3,289.8z"/>
		<path class="logo-s2" d="M233.8,437c0.6,0.1,1.4,0.5,1.5-0.6c0.1-1.5,0-3,0-4.5c0-1,0-2,0.3-2.9c1-2.8,1.5-5.6,1.3-8.5
			c-0.1-1,0-1.9,0.5-2.8c0.8-1.5,1.1-3,1.2-4.8c0.1-2.1,1.8-3.7,1.8-5.9c2.1-3.6,3.3-7.7,5.4-11.4c2.6-4.4,5.4-8.6,8.2-12.9
			c0.8-1.2,1.6-2.2,2.6-3.2c1.4-1.5,3-2.8,4-4.7c0.4-0.7,1-1.4,1.7-1.8c2.4-1.4,4-3.7,6.2-5.4c3-2.4,5.8-4.9,9-7.1
			c3.5-2.5,7.5-4,10.8-6.8c3.1-0.9,5.2-3.5,8.4-4.4c0.9-0.2,1.6-1,2.5-1.5c3.8-2.1,7.4-4.6,11.4-6.4c2.9-1.3,5.5-3.1,8.3-4.5
			c6.4-3.3,12.7-7,19-10.5c5-2.8,10.1-5.5,15.2-8.1c2.8-1.5,5.8-2.5,8.4-4.1c4.5-2.9,9.8-4.3,14.1-7.4c0.3-0.2,0.7-0.5,1-0.6
			c4-1.3,7.6-3.2,11-5.5c6.3-1.9,11.6-6.1,17.8-8.3c1.4-0.5,2.6-1.5,4-2.1c3.8-1.8,7.9-3,11.4-5.4c2.6-0.1,4.5-2,6.7-3
			c2.2-1,4.7-1.5,6.7-2.9c3.1-0.2,5.6-2.2,8.5-3c2.1-0.6,4.4-1.4,6.5-2.4c1.7-0.8,3.5-1.7,5.4-2.1c3.8-1,7.1-2.8,10.5-4.4
			c0.4-0.2,0.7-0.5,1.1-0.6c3.3-0.1,5.9-2.1,8.8-3.3c2.1-0.9,4.4-1.5,6.5-2.4c1.6-0.7,3.3-1.3,4.9-2c2.6-1.2,5.3-2.4,7.9-3.5
			c4.2-1.9,8.5-3.6,12.7-5.6c4.7-2.2,9.5-4.2,14-6.9c5.9-1.6,10.7-5.4,16-8.1c3.7-1.9,6.8-4.7,10.1-7.1c6-4.4,12.1-8.6,18.3-12.6
			c4.2-2.6,7.9-5.9,11.9-8.8c1.5-1.1,3.1-2.3,4.6-3.5c0.4-0.3,1-0.5,1.4-0.9c3.2-3.4,7.2-6,10.4-9.4c2.7-2.9,5.6-5.7,8.5-8.5
			c3.4-3.4,6.5-7.1,9.4-10.9c1.3-1.7,3-3.6,4.3-5.6c0.7-1.1,1.7-2.9,1.7-2.9s-0.4,3.7-0.5,6c-0.8,4-0.9,5.6-2.7,8.9
			c-3.4,6.6-7.7,12.7-12.2,18.6c-7.8,10-16.4,19.3-25.6,28.1c-7,6.7-14.7,12.5-22.8,17.6c-10.1,6.4-20.5,12.3-31,17.9
			c-7.1,3.7-14.1,7.4-21.3,10.8c-6.5,3-12.8,6.4-19.4,9.1c-5.1,2.1-10,4.6-15,6.9c-3.6,1.6-7.3,3.2-11,4.7
			c-5.4,2.3-10.9,4.5-16.3,6.8c-7.2,3-14.4,6.1-21.6,9.2c-5.2,2.2-10.3,4.5-15.4,6.8c-5.3,2.4-10.5,4.7-15.8,7.1
			c-5,2.3-10,4.6-15,6.9c-5.2,2.4-10.5,4.8-15.6,7.4c-4.6,2.2-9.1,4.6-13.6,6.9c-4.3,2.1-8.6,4.2-12.9,6.4
			c-8.4,4.3-16.8,8.7-25.1,13.4c-4.8,2.7-9.7,5.2-14.2,8.3c-3.5,2.4-7.1,4.7-10.1,7.9c-0.7,0.7-1.4,1.3-2,2.1
			c-2.5,3.5-2.2,5.3,0,7.8c1.8,2,3.4,3.9,5.5,5.6c2.3,1.9,4.4,4.2,6.6,6.2c1.9,1.7,2.3,1.9,4.3,0.5c2.6-1.8,5.5-2.4,8.6-2.3
			c2.6,0.1,5.2,0.1,7.9-0.1c6.3-0.4,12.4,0.7,18.5,1.8c3.2,0.6,6.4,1.7,9.3,3.4c2.8,1.6,5.1,3.8,6.4,6.8c0.7,1.8,1.9,2.2,3.6,1.9
			c4.7-1,9.5-1.7,14-3.3c3.6-1.3,7.2-2.7,10.5-4.6c8.7-4.9,15.6-11.7,21.3-19.8c4.5-6.3,8.1-13.1,10.8-20.4c2.7-7.1,5-14.3,6.2-21.8
			c0.3-1.8,0.9-5.9,0.9-5.9h16.1c-0.1,1.9-0.2,3.2-0.4,4.4c-1,6.4-1.5,12.9-3.2,19.1c-2.4,8.6-5.4,17-9.9,24.8
			c-3.4,5.9-7.5,11.2-11.9,16.3c-3.3,3.9-7.4,7-11.5,10.1c-4.4,3.3-8.9,6.4-13.9,8.9c-5.9,2.9-11.9,5.7-18.2,7.6
			c-4.4,1.3-8.7,2.5-13.1,3.5c-2.4,0.5-3.6,1.7-3.9,4.1c-0.6,5.1-5.9,9.1-10.4,9.7c-6.8,1-13.5,0.4-20.1-0.8
			c-1.8-0.3-3.5-0.5-5.3-0.8c-4.7-0.7-9.1-2-13-4.8c-3.9-2.7-6.1-6.3-6.1-11.1c0-2.1-0.1-4.1,0-6.2c0.2-2.4-0.8-4-2.8-5.1
			c-2.3-1.3-4.3-2.9-6.4-4.6c-5.2-4.1-10.2-8.4-15-13c-2.7-2.5-3.4-2-5.4,0.1c-1.9,2-3.6,4.2-5.3,6.4c-5.6,7.4-9.8,15.6-13.5,24.1
			c-0.8,1.9-2,3.6-2.3,5.7c-0.1,0.5-0.5,1-0.9,1.4c-0.4,0.4-1,0.5-1.6,0.3C234,438,233.8,437.6,233.8,437z M329,425.7
			c-0.1-2.9,0.1-5.2-1.6-7.2c-1.7-2-3.9-3.2-6.3-3.6c-2.4-0.3-4.9-0.5-7.4-1c-0.7-0.1-1.4-0.1-2.1,0c-3.5,0.2-5.6,1.9-6.7,5.2
			c-0.7,2.3-0.8,4.6-0.5,6.9c0.4,2.7,2.1,4.5,4.4,5.7c4.1,2.2,8.7,2.2,13.3,2.3c0.9,0,1.9-0.4,2.8-0.6c0.9-0.2,1.5-0.7,2-1.4
			C328.6,430,329.2,427.7,329,425.7z"/>
	</g>
</g>
</svg>