<svg
	version="1.1"
	xmlns="http://www.w3.org/2000/svg"
	x="0px" y="0px"
	width="312.5px"
	height="307.717px"
	viewBox="0 0 312.5 307.717"
	fill="#000000">
	<path
		transform="matrix(1.174084664392433,0,0,1.174084664392433,122.65245578399634,74.08095190572209)"
		d="M122.804,1.774c-2.492,2.848-6.404,4.625-10.324,4.625
		c-1.782,0-3.565-0.357-5.34-0.712L49.794,71.578l63.4,91.536c6.054,8.904,3.913,21.014-4.63,27.064
		c-3.562,2.493-7.481,3.562-11.397,3.562c-6.41,0-12.111-3.206-16.031-8.55l-48.083-69.448l0.714,13.891l-47.371,54.494
		c-6.056,6.761-14.248,10.324-23.151,10.324c-7.475,0-14.597-2.494-20.297-7.48c-12.821-11.042-14.246-30.631-2.848-43.448
		l47.37-54.137l17.809-1.781l4.626-4.987l-25.29-36.684l-3.205,2.136l-2.845-2.848c0,0-6.417-5.343-13.532-5.343
		c-1.787,0-3.205,0-4.633,0.712c-6.764,2.494-16.737,16.384-19.949,24.576l-1.421,4.631l-12.465-2.85l-4.63-0.712l0.357-4.986
		c0-0.712,1.778-21.727,13.178-44.521c13.883-27.781,36.678-45.946,65.529-53.419l-1.418-2.138l-3.569-4.279l4.63-3.207
		l13.178-9.253l4.63-2.85l3.205,4.274L44.806-21.02l3.205,4.268L26.998-2.15l-2.847-4.625l-3.564-4.636
		C16.315-8.56,10.615-3.569,9.192,1.056c-0.357,1.781,0,3.567,1.424,5.343l7.124,10.686l3.205,4.629l-3.919,2.494l27.072,39.18
		l55.91-64.112c-3.199-4.987-2.841-11.747,1.431-16.383l17.452-15.309l16.733,14.246L122.804,1.774L122.804,1.774z M-19.66,39.879
		l-0.705-1.069l31.337-21.725l-4.98-7.48C-4.344-5,22.37-18.527,22.37-18.527l6.054,8.904l12.112-8.548L17.026-50.94L3.848-42.035
		l6.767,8.904c-76.926,13.173-82.983,95.093-82.983,95.093l7.838,1.426c3.206-7.837,13.533-24.577,23.152-28.138
		c2.135-0.713,4.272-0.713,6.41-0.713C-28.2,34.536-22.502,37.742-19.66,39.879L-19.66,39.879z M28.07,108.62l3.559-4.274
		l8.549-9.616l2.494-2.85l2.849-3.206c3.918-4.631,0.356-9.618-0.358-10.687l-9.258-7.835c-1.425-1.067-2.852-1.78-3.919-1.78
		c-2.138,0-3.562,1.424-4.273,2.136l-0.357,0.355l-1.78,2.138l-8.549,9.972l-3.916,4.275l-4.986,5.698l-18.164,1.424
		l-45.943,52.713c-9.26,10.68-7.836,26.713,2.494,35.968c4.629,3.918,10.684,6.06,16.735,6.06c7.127,0,14.252-3.206,18.881-8.553
		l45.943-52.714l-0.714-18.161L28.07,108.62L28.07,108.62z M-48.146,162.751l-2.851-2.129l37.393-43.098l2.849,2.494
		L-48.146,162.751L-48.146,162.751z M-39.954,170.232l-2.501-2.494l37.4-43.096l2.492,2.499L-39.954,170.232L-39.954,170.232z
		M6.696,135.333l-37.397,42.735l-2.848-2.138l37.397-43.091L6.696,135.333L6.696,135.333z M22.012,68.729L3.848,42.015
		l2.848-2.136l18.164,26c1.071-1.424,3.563-2.848,7.125-2.848c2.494,0,4.987,1.069,7.482,3.205L12.396,27.413l-23.151,15.672
		l24.218,35.261L22.012,68.729L22.012,68.729z M108.915,166.32l-56.27-81.208c-0.357,2.494-1.071,4.631-2.851,6.768l-3.917,4.629
		l49.508,71.59l-2.851,2.133L43.383,99.003l-8.549,9.972l50.935,73.367c2.493,3.567,6.765,6.054,11.398,6.054
		c2.841,0,5.696-1.066,8.191-2.487C111.763,181.272,113.193,172.369,108.915,166.32L108.915,166.32z M118.891-25.301
		l-13.533,12.115c-3.206,3.562-2.495,8.904,1.067,12.11c1.782,1.418,3.92,2.13,6.054,2.13c2.495,0,4.627-1.069,6.411-2.85
		l9.612-15.314L118.891-25.301L118.891-25.301z" />
</svg>